<?xml version="1.0" encoding="UTF-8" standalone="no"?>
<!-- Created with Inkscape (http://www.inkscape.org/) -->

<svg
   xmlns:dc="http://purl.org/dc/elements/1.1/"
   xmlns:cc="http://creativecommons.org/ns#"
   xmlns:rdf="http://www.w3.org/1999/02/22-rdf-syntax-ns#"
   xmlns:svg="http://www.w3.org/2000/svg"
   xmlns="http://www.w3.org/2000/svg"
   xmlns:xlink="http://www.w3.org/1999/xlink"
   xmlns:sodipodi="http://sodipodi.sourceforge.net/DTD/sodipodi-0.dtd"
   xmlns:inkscape="http://www.inkscape.org/namespaces/inkscape"
   width="16"
   height="16"
   id="svg3864"
   version="1.1"
   inkscape:version="0.47 r22583"
   sodipodi:docname="save.svg">
  <defs
     id="defs3866">
    <linearGradient
       inkscape:collect="always"
       id="linearGradient8227">
      <stop
         style="stop-color:#ffa599;stop-opacity:1"
         offset="0"
         id="stop8229" />
      <stop
         style="stop-color:#ff9686;stop-opacity:0;"
         offset="1"
         id="stop8231" />
    </linearGradient>
    <linearGradient
       id="linearGradient8221">
      <stop
         id="stop8223"
         offset="0"
         style="stop-color:#f57979;stop-opacity:1" />
      <stop
         id="stop8225"
         offset="1"
         style="stop-color:#f46666;stop-opacity:1" />
    </linearGradient>
    <radialGradient
       inkscape:collect="always"
       xlink:href="#linearGradient8221"
       id="radialGradient2940"
       gradientUnits="userSpaceOnUse"
       gradientTransform="matrix(1.3525706,4.4574364e-8,0,0.65382819,-6.9391488,1043.0229)"
       cx="10.992121"
       cy="0.11211871"
       fx="10.992121"
       fy="0.11211871"
       r="8" />
    <linearGradient
       inkscape:collect="always"
       xlink:href="#linearGradient8227"
       id="linearGradient2943"
       gradientUnits="userSpaceOnUse"
       x1="7.9372396"
       y1="1040.0298"
       x2="7.9372396"
       y2="1049.78" />
  </defs>
  <sodipodi:namedview
     id="base"
     pagecolor="#ffffff"
     bordercolor="#666666"
     borderopacity="1.0"
     inkscape:pageopacity="0.0"
     inkscape:pageshadow="2"
     inkscape:zoom="28"
     inkscape:cx="8"
     inkscape:cy="8"
     inkscape:document-units="px"
     inkscape:current-layer="layer1"
     showgrid="false"
     inkscape:showpageshadow="false"
     inkscape:window-width="1366"
     inkscape:window-height="716"
     inkscape:window-x="0"
     inkscape:window-y="24"
     inkscape:window-maximized="1"
     inkscape:snap-nodes="false"
     inkscape:snap-bbox="true"
     showguides="true"
     inkscape:guide-bbox="true">
    <inkscape:grid
       type="xygrid"
       id="grid2863" />
  </sodipodi:namedview>
  <metadata
     id="metadata3869">
    <rdf:RDF>
      <cc:Work
         rdf:about="">
        <dc:format>image/svg+xml</dc:format>
        <dc:type
           rdf:resource="http://purl.org/dc/dcmitype/StillImage" />
        <dc:title />
      </cc:Work>
    </rdf:RDF>
  </metadata>
  <g
     inkscape:label="Layer 1"
     inkscape:groupmode="layer"
     id="layer1"
     transform="translate(0,-1036.3622)">
    <path
       style="font-size:40px;font-style:normal;font-weight:normal;color:#000000;fill:url(#radialGradient2940);fill-opacity:1;fill-rule:evenodd;stroke:#a33939;stroke-width:0.99999994;stroke-linecap:butt;stroke-linejoin:round;stroke-miterlimit:4;stroke-opacity:1;stroke-dashoffset:0;marker:none;visibility:visible;display:inline;overflow:visible;enable-background:accumulate;font-family:Bitstream Vera Sans"
       d="m 4.53125,1037.8614 c -1.987432,-0.042 -3.96372118,1.6214 -3.9375,3.6752 -0.023558,1.7306 1.0014408,3.2388 2.1569923,4.437 1.3282859,1.4874 2.6515997,2.9816 4.0198475,4.4317 0.7524779,0.71 2.0461844,0.5538 2.6565572,-0.2642 1.499925,-1.6291 3.010591,-3.2493 4.504444,-4.8833 1.199439,-1.3964 1.92196,-3.4571 1.162159,-5.2307 -0.769454,-1.3093 -2.216964,-2.2735 -3.773935,-2.1616 -1.3427518,0.07 -2.6241932,0.8936 -3.1853853,2.1182 -0.2072582,0.6214 -0.494757,-0.6411 -0.8528165,-0.8165 -0.6754106,-0.8029 -1.6915491,-1.3235 -2.7503632,-1.3058 z"
       id="path6750" />
    <path
       style="font-size:40px;font-style:normal;font-weight:normal;color:#000000;fill:none;stroke:url(#linearGradient2943);stroke-width:1.06197906;stroke-linecap:butt;stroke-linejoin:miter;stroke-miterlimit:4;stroke-opacity:0.69603529;stroke-dasharray:none;stroke-dashoffset:0;marker:none;visibility:visible;display:inline;overflow:visible;enable-background:accumulate;font-family:Bitstream Vera Sans"
       d="m 4.53125,1038.813 c -1.4404988,0.012 -2.9080736,1.2188 -2.875,2.7236 -0.017803,1.4654 0.8939187,2.7037 1.8597991,3.7186 1.317567,1.4731 2.6351339,2.9462 3.9527009,4.4193 0.3891819,0.3865 0.9853485,0.1623 1.2542221,-0.2432 1.2800219,-1.3955 2.5586109,-2.7923 3.8395279,-4.1869 0.277495,-0.1951 0.785244,-0.8288 1.052202,-1.2587 0.659856,-1.0626 1.032981,-2.5063 0.412728,-3.6668 -0.571719,-0.9437 -1.638608,-1.6342 -2.770369,-1.4942 -1.045646,0.097 -1.8917315,0.8869 -2.288311,1.8257 -0.3753163,0.7047 -1.6444509,0.6935 -1.9517087,-0.06 -0.2838048,-0.6361 -0.8240622,-1.3031 -1.5153917,-1.5927 -0.3055127,-0.1291 -0.6409301,-0.1876 -0.9703996,-0.1847 z"
       id="path8103" />
  </g>
</svg>
