<?xml version="1.0" encoding="UTF-8" standalone="no"?>
<!-- Created with Inkscape (http://www.inkscape.org/) -->

<svg
   xmlns:dc="http://purl.org/dc/elements/1.1/"
   xmlns:cc="http://creativecommons.org/ns#"
   xmlns:rdf="http://www.w3.org/1999/02/22-rdf-syntax-ns#"
   xmlns:svg="http://www.w3.org/2000/svg"
   xmlns="http://www.w3.org/2000/svg"
   xmlns:sodipodi="http://sodipodi.sourceforge.net/DTD/sodipodi-0.dtd"
   xmlns:inkscape="http://www.inkscape.org/namespaces/inkscape"
   width="16"
   height="16"
   id="svg3864"
   version="1.1"
   inkscape:version="0.47 r22583"
   sodipodi:docname="savegray.svg">
  <defs
     id="defs3866" />
  <sodipodi:namedview
     id="base"
     pagecolor="#ffffff"
     bordercolor="#666666"
     borderopacity="1.0"
     inkscape:pageopacity="0.0"
     inkscape:pageshadow="2"
     inkscape:zoom="16"
     inkscape:cx="-4.6885263"
     inkscape:cy="7.3977937"
     inkscape:document-units="px"
     inkscape:current-layer="layer1"
     showgrid="false"
     inkscape:showpageshadow="false"
     inkscape:window-width="1366"
     inkscape:window-height="716"
     inkscape:window-x="0"
     inkscape:window-y="24"
     inkscape:window-maximized="1"
     inkscape:snap-nodes="false"
     inkscape:snap-bbox="true"
     showguides="true"
     inkscape:guide-bbox="true">
    <inkscape:grid
       type="xygrid"
       id="grid2863" />
  </sodipodi:namedview>
  <metadata
     id="metadata3869">
    <rdf:RDF>
      <cc:Work
         rdf:about="">
        <dc:format>image/svg+xml</dc:format>
        <dc:type
           rdf:resource="http://purl.org/dc/dcmitype/StillImage" />
        <dc:title />
      </cc:Work>
    </rdf:RDF>
  </metadata>
  <g
     inkscape:label="Layer 1"
     inkscape:groupmode="layer"
     id="layer1"
     transform="translate(0,-1036.3622)">
    <path
       style="font-size:40px;font-style:normal;font-weight:normal;color:#000000;fill:#a2a2a2;fill-opacity:1;fill-rule:evenodd;stroke:#787878;stroke-width:1;stroke-linecap:butt;stroke-linejoin:round;stroke-miterlimit:4;stroke-opacity:1;stroke-dashoffset:0;marker:none;visibility:visible;display:inline;overflow:visible;enable-background:accumulate;font-family:Bitstream Vera Sans;stroke-dasharray:none"
       d="m 4.53125,1037.8614 c -0.6208338,0 -1.2257737,0.1403 -1.8125,0.4266 -0.010412,-4e-4 -0.020838,-4e-4 -0.03125,0 -1.350642,0.7665 -2.09375196,1.9102 -2.09375,3.2486 -1.91e-6,1.3562 0.5802255,2.6743 1.6875,3.9049 1.4250839,1.6205 2.90639,3.2532 4.34375,4.8237 0.7503345,0.797 1.9371655,0.797 2.6875,0 l 4.03125,-4.3643 c 1.356015,-1.3538 2.062483,-2.8262 2.0625,-4.3643 -1.8e-5,-0.4704 -0.09247,-0.9896 -0.3125,-1.5095 -0.0097,-0.011 -0.02019,-0.022 -0.03125,-0.033 -0.846455,-1.3704 -2.089226,-2.1329 -3.5625,-2.1329 -0.966313,0 -1.8484617,0.3713 -2.59375,1.05 -0.010412,-3e-4 -0.020838,-3e-4 -0.03125,0 -0.3623478,0.3838 -0.6468225,0.8564 -0.875,1.3454 -0.024722,-0.051 -0.00441,-0.078 -0.03125,-0.1312 -0.010412,-4e-4 -0.020838,-4e-4 -0.03125,0 -0.7764193,-1.4326 -1.9563537,-2.2642 -3.40625,-2.2642 z"
       id="path6750"
       sodipodi:nodetypes="csssccccsssssscscc" />
  </g>
</svg>
